<?xml version="1.0" encoding="UTF-8"?>
<svg width="92px" height="49px" viewBox="0 0 92 49" version="1.1" xmlns="http://www.w3.org/2000/svg" xmlns:xlink="http://www.w3.org/1999/xlink">
    <title>Cisco Logo</title>
    <defs>
        <polygon id="path-1" points="0 47.9261079 91.7730787 47.9261079 91.7730787 0 0 0"></polygon>
    </defs>
    <g id="V1" stroke="none" stroke-width="1" fill="none" fill-rule="evenodd">
        <g id="DESKTOP" transform="translate(-871.000000, -3808.000000)">
            <g id="Section-5:-Logo-Wall" transform="translate(262.000000, 3746.000000)">
                <g id="Partner-Logos" transform="translate(0.000000, 62.000000)">
                    <g id="Cisco-Logo" transform="translate(609.000000, 0.000000)">
                        <path d="M35.4253517,43.8555283 L35.4099094,47.4801962 L35.6776625,47.5255467 C36.5175643,47.681034 37.3658415,47.7890977 38.2180448,47.8489603 C38.9647696,47.9176338 39.7151587,47.9318868 40.4637156,47.8924967 C41.1792941,47.8414451 41.8864972,47.7092809 42.571453,47.4991139 C43.3752356,47.2733981 44.1206517,46.8800153 44.7571868,46.3446207 C45.330906,45.8600186 45.7690473,45.2378103 46.0305188,44.5378583 C46.486458,43.365225 46.4772973,42.0656104 46.0051307,40.8994557 C45.7564841,40.2946101 45.365193,39.7576606 44.8631888,39.3336986 C44.3781972,38.9006665 43.8081423,38.57207 43.1888815,38.3678634 L40.4281199,37.3535679 C40.098336,37.2149251 39.8300595,36.9622582 39.6740665,36.6427318 C39.5526223,36.3768486 39.5638769,36.0697611 39.7049511,35.8134663 C39.7541569,35.7232836 39.8161877,35.6406162 39.8889495,35.5680555 C39.9734893,35.4830558 40.0684985,35.408681 40.1710979,35.3464861 C40.21219,35.321349 40.2540673,35.298285 40.2964681,35.2765168 C40.6050515,35.125435 40.9382378,35.029292 41.2805849,34.9930116 C41.8650351,34.9095668 42.4589077,34.9155271 43.0415258,35.0111518 C43.7296223,35.0850083 44.4119607,35.2057701 45.0827829,35.3729189 L45.2256892,35.4042755 L45.2256892,32.0602621 L44.9618622,32.0045458 C44.2776916,31.8423208 43.5843604,31.7200041 42.8855328,31.6381141 C41.9796742,31.5189072 41.0622994,31.5147609 40.1553939,31.6269709 C39.0066469,31.7308882 37.9139108,32.1659935 37.0119783,32.8783844 C36.4008313,33.3533981 35.9357314,33.9883046 35.6695487,34.7108022 C35.2685735,35.8116522 35.2672648,37.0161605 35.6661462,38.117788 C35.872392,38.6653624 36.2026992,39.1587754 36.6316799,39.5601918 C37.0036028,39.9152211 37.424208,40.2168664 37.8809325,40.456576 C38.4823953,40.7763615 39.1199774,41.0243638 39.780592,41.1948815 C39.9986157,41.2594087 40.2153308,41.3278231 40.4312607,41.3996064 L40.7581654,41.5185542 C40.7895734,41.5307341 40.8204579,41.5434322 40.8516042,41.5561303 C41.1740595,41.6704135 41.468771,41.8505196 41.7163706,42.084528 C41.8883293,42.2439025 42.0210281,42.4403347 42.1037357,42.6587944 C42.1547737,42.8583364 42.1552972,43.0674668 42.1058296,43.267268 C42.002445,43.5899041 41.7755223,43.8594154 41.4740057,44.0177533 C41.1452688,44.1869753 40.7887882,44.2973713 40.4210531,44.3437584 C39.8813592,44.4284989 39.3340751,44.4557092 38.7888849,44.4251301 C38.0740916,44.3720052 37.3632242,44.2779354 36.6591619,44.143698 C36.2911651,44.0690641 35.9250003,43.9843236 35.5617147,43.8894763 L35.4253517,43.8555283 Z" id="Fill-1" fill="#C1C7D0"></path>
                        <g id="Group-5" transform="translate(8.113729, 31.340796)" fill="#C1C7D0">
                            <path d="M12.3024807,16.0076243 L12.3024807,11.7993606 L12.2192495,11.8351227 C11.2610443,12.2945877 10.2188228,12.5568429 9.1554008,12.6053031 C8.05062501,12.6908211 6.95291601,12.3705173 6.07139863,11.7052908 C5.44193031,11.2243168 4.97395136,10.5663464 4.72870737,9.81741594 C4.45807525,9.00136679 4.42666727,8.12597332 4.63840942,7.29307971 C4.83497104,6.44126849 5.31708358,5.68015818 6.0057036,5.13413863 C6.61632713,4.62828663 7.36279019,4.30927853 8.15348615,4.21676359 C9.55166485,4.06334946 10.9642389,4.32586385 12.2108741,4.97061783 L12.3024807,5.01752316 L12.3024807,0.785159007 L12.1082747,0.7338482 C10.8603308,0.336837309 9.54983272,0.167097012 8.24038157,0.232401676 C7.04792516,0.262462553 5.8732666,0.528604972 4.78602693,1.01450277 C3.68857967,1.51232125 2.72095207,2.25269992 1.95773809,3.17862676 C-0.427959939,6.16709256 -0.491561104,10.3688775 1.8025303,13.4270535 C2.93164729,14.8572774 4.51696522,15.8661308 6.29962997,16.2900929 C8.17887427,16.7423017 10.1476313,16.6738873 11.990233,16.092624 L12.3024807,16.0076243" id="Fill-3"></path>
                        </g>
                        <mask id="mask-2" fill="white">
                            <use xlink:href="#path-1"></use>
                        </mask>
                        <g id="Clip-7"></g>
                        <polygon id="Fill-6" fill="#C1C7D0" mask="url(#mask-2)" points="25.9563422 47.6267948 29.9757788 47.6267948 29.9757788 31.8419839 25.9563422 31.8419839"></polygon>
                        <path d="M0,19.1564752 C0.0374278461,19.6535163 0.263041856,20.1176458 0.63182392,20.4566081 C1.00034425,20.7953113 1.48481239,20.9837101 1.98786358,20.9837101 C2.49091477,20.9837101 2.9753829,20.7953113 3.34390323,20.4566081 C3.7126853,20.1176458 3.93829931,19.6535163 3.97546542,19.1564752 L3.97546542,14.7818402 C3.9555737,14.2731376 3.73728822,13.7924227 3.36641229,13.4394665 C2.99605982,13.0867695 2.50190756,12.889819 1.98786358,12.889819 C1.47381959,12.889819 0.979667329,13.0867695 0.609053133,13.4394665 C0.238438936,13.7924227 0.0201534556,14.2731376 0,14.7818402 L0,19.1564752" id="Fill-8" fill="#C1C7D0" mask="url(#mask-2)"></path>
                        <path d="M11.0045458,19.1564752 C11.0422354,19.6535163 11.2678494,20.1176458 11.6363697,20.4566081 C12.0051518,20.7953113 12.4893582,20.9837101 12.9926711,20.9837101 C13.4954606,20.9837101 13.9799287,20.7953113 14.348449,20.4566081 C14.7172311,20.1176458 14.9428451,19.6535163 14.9802729,19.1564752 L14.9802729,9.34911412 C14.9601195,8.84067067 14.741834,8.35969664 14.3712198,8.00699962 C14.0006056,7.65430261 13.5067151,7.45709289 12.9926711,7.45709289 C12.4783654,7.45709289 11.9842131,7.65430261 11.6135989,8.00699962 C11.2432465,8.35969664 11.024961,8.84067067 11.0045458,9.34911412 L11.0045458,19.1564752" id="Fill-9" fill="#C1C7D0" mask="url(#mask-2)"></path>
                        <path d="M21.950568,23.1066818 C21.9879959,23.6032045 22.2133482,24.0675932 22.582392,24.4062964 C22.9509123,24.7452587 23.4351187,24.9333983 23.9384316,24.9333983 C24.4412211,24.9333983 24.9256892,24.7452587 25.2944713,24.4062964 C25.6632533,24.0675932 25.8888673,23.6032045 25.9260335,23.1066818 L25.9260335,1.8925136 C25.9061417,1.38381101 25.6875945,0.902577829 25.3169803,0.549880817 C24.9463661,0.197442949 24.4524756,0.000233230943 23.9384316,0.000233230943 C23.4241259,0.000233230943 22.9302354,0.197442949 22.5596212,0.549880817 C22.1892687,0.902577829 21.9707215,1.38381101 21.950568,1.8925136 L21.950568,23.1066818" id="Fill-10" fill="#C1C7D0" mask="url(#mask-2)"></path>
                        <path d="M32.9537266,19.1564752 C32.9911545,19.6535163 33.2165068,20.1176458 33.5855506,20.4566081 C33.9540709,20.7953113 34.438539,20.9837101 34.9413285,20.9837101 C35.4446414,20.9837101 35.9288478,20.7953113 36.2976299,20.4566081 C36.6664119,20.1176458 36.8920259,19.6535163 36.9291921,19.1564752 L36.9291921,9.34911412 C36.9090386,8.84067067 36.6904914,8.35969664 36.3201389,8.00699962 C35.9495247,7.65430261 35.4556342,7.45709289 34.9413285,7.45709289 C34.4272845,7.45709289 33.933394,7.65430261 33.5627798,8.00699962 C33.1921656,8.35969664 32.9741418,8.84067067 32.9537266,9.34911412 L32.9537266,19.1564752" id="Fill-11" fill="#C1C7D0" mask="url(#mask-2)"></path>
                        <path d="M43.907915,19.1564752 C43.9453428,19.6535163 44.1709568,20.1176458 44.5397389,20.4566081 C44.908521,20.7953113 45.3927274,20.9837101 45.8957785,20.9837101 C46.3988297,20.9837101 46.8832979,20.7953113 47.2518182,20.4566081 C47.620862,20.1176458 47.8462143,19.6535163 47.8836421,19.1564752 L47.8836421,14.7818402 C47.8632269,14.2731376 47.6452032,13.7924227 47.274589,13.4394665 C46.9039748,13.0867695 46.4100843,12.889819 45.8957785,12.889819 C45.3817346,12.889819 44.887844,13.0867695 44.5169681,13.4394665 C44.1466156,13.7924227 43.9280684,14.2731376 43.907915,14.7818402 L43.907915,19.1564752" id="Fill-12" fill="#C1C7D0" mask="url(#mask-2)"></path>
                        <path d="M54.9024887,19.1564752 C54.9399166,19.6535163 55.1655306,20.1176458 55.5343126,20.4566081 C55.902833,20.7953113 56.3873011,20.9837101 56.8903523,20.9837101 C57.3934035,20.9837101 57.8778716,20.7953113 58.246392,20.4566081 C58.615174,20.1176458 58.840788,19.6535163 58.8782159,19.1564752 L58.8782159,9.34911412 C58.8580624,8.84067067 58.6397769,8.35969664 58.2691627,8.00699962 C57.8985485,7.65430261 57.4043963,7.45709289 56.8903523,7.45709289 C56.3763083,7.45709289 55.8821561,7.65430261 55.5115419,8.00699962 C55.1409277,8.35969664 54.9229039,8.84067067 54.9024887,9.34911412 L54.9024887,19.1564752" id="Fill-13" fill="#C1C7D0" mask="url(#mask-2)"></path>
                        <path d="M65.8523584,23.1066818 C65.8897863,23.6032045 66.1151386,24.0675932 66.4841824,24.4062964 C66.8527027,24.7452587 67.3369091,24.9333983 67.8399603,24.9333983 C68.3430115,24.9333983 68.8274796,24.7452587 69.1962617,24.4062964 C69.564782,24.0675932 69.7906578,23.6032045 69.8278239,23.1066818 L69.8278239,1.8925136 C69.8076704,1.38381101 69.5891232,0.902577829 69.2187707,0.549880817 C68.8481565,0.197442949 68.354266,0.000233230943 67.8399603,0.000233230943 C67.3259163,0.000233230943 66.8320258,0.197442949 66.4611498,0.549880817 C66.0907974,0.902577829 65.8725119,1.38381101 65.8523584,1.8925136 L65.8523584,23.1066818" id="Fill-14" fill="#C1C7D0" mask="url(#mask-2)"></path>
                        <path d="M76.8379809,19.1564752 C76.8754088,19.6535163 77.1007611,20.1176458 77.4698049,20.4566081 C77.8383252,20.7953113 78.3227933,20.9837101 78.8258445,20.9837101 C79.3288957,20.9837101 79.8131021,20.7953113 80.1818842,20.4566081 C80.5506662,20.1176458 80.7762802,19.6535163 80.8134463,19.1564752 L80.8134463,9.34911412 C80.7932929,8.84067067 80.5750074,8.35969664 80.2043932,8.00699962 C79.833779,7.65430261 79.3398885,7.45709289 78.8258445,7.45709289 C78.3115388,7.45709289 77.8176483,7.65430261 77.4470341,8.00699962 C77.0764199,8.35969664 76.8583961,8.84067067 76.8379809,9.34911412 L76.8379809,19.1564752" id="Fill-15" fill="#C1C7D0" mask="url(#mask-2)"></path>
                        <path d="M87.7974301,19.1564752 C87.8348579,19.6535163 88.0604719,20.1176458 88.429254,20.4566081 C88.7977743,20.7953113 89.2819807,20.9837101 89.7850319,20.9837101 C90.2880831,20.9837101 90.7725513,20.7953113 91.1413333,20.4566081 C91.5101154,20.1176458 91.7357294,19.6535163 91.7728955,19.1564752 L91.7728955,14.7818402 C91.7527421,14.2731376 91.5344566,13.7924227 91.1638424,13.4394665 C90.7932282,13.0867695 90.2993377,12.889819 89.7850319,12.889819 C89.270988,12.889819 88.7770974,13.0867695 88.4064832,13.4394665 C88.035869,13.7924227 87.8175835,14.2731376 87.7974301,14.7818402 L87.7974301,19.1564752" id="Fill-16" fill="#C1C7D0" mask="url(#mask-2)"></path>
                        <path d="M62.4171103,47.3484208 L62.4171103,43.1401571 L62.3338792,43.1759192 C61.375674,43.6353842 60.3334524,43.8976394 59.2700305,43.9460996 C58.1655164,44.0316176 57.0675457,43.7113138 56.1865518,43.0460873 C55.5570834,42.5651133 55.088581,41.9071429 54.8435988,41.1582124 C54.5729666,40.3421633 54.5415587,39.4667698 54.7530391,38.6338762 C54.9496007,37.782065 55.4317132,37.0209547 56.120595,36.4749351 C56.7312185,35.9690831 57.4776816,35.650075 58.2683775,35.5575601 C59.6665562,35.404146 61.0791303,35.6666603 62.3260272,36.3114143 L62.4171103,36.3583196 L62.4171103,32.1259555 L62.223166,32.0746447 C60.9749605,31.6776338 59.6644624,31.5078935 58.355273,31.5731982 C57.1625548,31.603259 55.9878963,31.8694015 54.9009183,32.3552993 C53.8032093,32.8531177 52.8358435,33.5937556 52.0726295,34.5194232 C49.6869315,37.507889 49.623592,41.709674 51.9176834,44.76785 C53.0468004,46.1980739 54.6318566,47.2069273 56.4145214,47.6308893 C58.2937657,48.0830982 60.2625227,48.0146838 62.1051244,47.4334205 L62.4171103,47.3484208" id="Fill-17" fill="#C1C7D0" mask="url(#mask-2)"></path>
                        <path d="M72.4882109,36.5032856 C73.3569033,35.8162909 74.4658669,35.499356 75.5706427,35.6219318 C76.6756802,35.7442485 77.6859703,36.2964875 78.379825,37.1565914 C79.0736797,38.0166953 79.3937794,39.1146947 79.2699796,40.2085479 C79.1461798,41.3026601 78.5884263,42.3032209 77.7197339,42.9899564 C76.8510414,43.6769511 75.7420779,43.9936269 74.6373021,43.8713102 C73.5325263,43.7487344 72.5219745,43.1967545 71.8281198,42.3363915 C71.1345268,41.4762876 70.8141654,40.3785473 70.9382269,39.284435 C71.061765,38.1905819 71.6195184,37.1900212 72.4882109,36.5032856 M66.6526077,39.7410494 C66.6916059,42.2361022 67.861815,44.581628 69.8392093,46.1287266 C71.8168652,47.6758252 74.3917964,48.2607165 76.8526118,47.7214348 C80.1938977,47.098449 82.7978812,44.494296 83.3938477,41.1800843 C83.9898142,37.8658726 82.4537021,34.532225 79.5348535,32.8052795 C76.9573051,31.226306 73.7228063,31.1363825 71.0599329,32.5702345 C68.3970594,34.0035682 66.7149002,36.7406629 66.6526077,39.7410494" id="Fill-18" fill="#C1C7D0" mask="url(#mask-2)"></path>
                    </g>
                </g>
            </g>
        </g>
    </g>
</svg>