<?xml version="1.0" encoding="UTF-8"?>
<svg width="99px" height="41px" viewBox="0 0 99 41" version="1.1" xmlns="http://www.w3.org/2000/svg" xmlns:xlink="http://www.w3.org/1999/xlink">
    <title>ebay logo</title>
    <g id="V1" stroke="none" stroke-width="1" fill="none" fill-rule="evenodd">
        <g id="DESKTOP" transform="translate(-486.000000, -3812.000000)" fill="#C1C7D0">
            <g id="Section-5:-Logo-Wall" transform="translate(262.000000, 3746.000000)">
                <g id="Partner-Logos" transform="translate(0.000000, 62.000000)">
                    <g id="ebay-logo" transform="translate(224.000000, 4.881359)">
                        <path d="M5.19850095,18.0715514 C5.19850095,18.0715514 5.55237514,11.8644157 12.6649488,11.8622679 C19.7513537,11.8603153 19.7513537,18.0715514 19.7513537,18.0715514 L5.19850095,18.0715514 Z M12.7868719,8.62124095 C0.421695111,8.61870264 -0.0588600811,18.0994728 0.0043812994,20.5604586 C0.0043812994,20.5604586 -0.601268912,31.6444621 12.4843441,31.6444621 C23.7284237,31.6444621 24.2821327,24.6896975 24.2821327,24.6896975 L19.1088292,24.6998507 C19.1088292,24.6998507 18.1013286,28.5311315 12.5055568,28.4288183 C5.31189929,28.2968263 5.03276492,21.432855 5.03276492,21.432855 L24.9617297,21.432855 C24.9617297,21.432855 26.4739719,8.623584 12.7868719,8.62124095 L12.7868719,8.62124095 Z" id="Fill-1"></path>
                        <path d="M37.6613523,28.3349985 C29.8097069,28.43204 29.9373792,20.1329492 29.9373792,20.1329492 C29.9373792,20.1329492 29.6511078,12.1447033 37.6490609,11.9392957 C45.6458244,11.7342786 45.3857219,20.3034062 45.3857219,20.3034062 C45.3857219,20.3034062 45.5131959,28.2373714 37.6613523,28.3349985 M38.8032656,8.62114332 C32.5859837,8.58677856 29.9112103,12.2472118 29.9112103,12.2472118 L29.9112103,7.81017385e-05 L24.9268379,7.81017385e-05 L25.0110937,25.884166 C25.0110937,25.884166 24.9811581,28.8992836 24.7926235,30.8918542 L29.6338602,30.8918542 L29.841625,27.9839312 C29.841625,27.9839312 32.0996793,31.6443645 38.6987885,31.6443645 C45.2986907,31.6443645 50.5094632,27.6416504 50.6486339,20.2182753 C50.7870116,12.794705 45.0213405,8.65511758 38.8032656,8.62114332" id="Fill-3"></path>
                        <path d="M60.6518343,28.5138515 C60.6518343,28.5138515 55.6561618,28.5197092 55.3629517,24.5886534 C55.0507098,20.3934185 63.0486628,20.6456871 63.0486628,20.6456871 L68.6991513,20.64022 C68.6991513,20.64022 69.6138715,28.6296374 60.6518343,28.5138515 M73.6777745,25.782048 C73.6900659,22.4336311 73.7897851,19.4442871 73.6777745,17.3353449 C73.5469302,14.8901747 73.7820534,8.98880726 63.0486628,8.55260905 C63.0486628,8.55260905 52.7585567,7.62886073 51.6899954,15.1721219 L56.9527092,15.1721219 C56.9527092,15.1721219 57.3613,11.7163152 62.7017273,11.8155045 C67.7552886,11.909617 68.6761544,14.3510774 68.6499856,17.353113 C68.6499856,17.353113 64.3182484,17.3652188 62.8728161,17.3724432 C60.2680246,17.38533 51.1515516,17.6696203 50.3006675,23.1386946 C49.288409,29.6414454 55.1813558,31.6701381 59.7922273,31.6443645 C64.4034954,31.6185909 67.0340593,30.2590349 68.9881981,27.8214796 L69.1971524,30.8488983 L73.7820534,30.8231247 C73.7820534,30.8231247 73.663897,29.1302695 73.6777745,25.782048" id="Fill-5"></path>
                        <polygon id="Fill-7" points="70.9509013 9.44203165 76.73382 9.44203165 85.1919086 26.0511475 93.6678396 9.44203165 98.8954633 9.44203165 83.5938247 39.0509867 78.0022161 39.0509867 82.4306987 30.8231638"></polygon>
                    </g>
                </g>
            </g>
        </g>
    </g>
</svg>