<?xml version="1.0" encoding="utf-8"?>
<!-- Generator: Adobe Illustrator 23.0.3, SVG Export Plug-In . SVG Version: 6.00 Build 0)  -->
<svg version="1.1" id="Layer_1" xmlns="http://www.w3.org/2000/svg" xmlns:xlink="http://www.w3.org/1999/xlink" x="0px" y="0px"
	 viewBox="0 0 1224.6 548.5" style="enable-background:new 0 0 1224.6 548.5;" xml:space="preserve">
<style type="text/css">
	.st0{fill:#041E41;}
</style>
<g>
	<path class="st0" d="M555.1,242.3c-13.3,0-27.2-13.4-27.2-27.2v-99.5c0-13.9,14-27.2,27.2-27.2h148.7c13.3,0,27.2,13.4,27.2,27.2
		v22.1h-79.9c0,0,0-14.2-21.7-14.2c-21.7,0-22.1,15.9-22.1,15.9v54.9c0,0,0.2,17.7,22.3,17.7s22.3-19.5,22.3-19.5v-10.8h-21.5v-26.5
		h101.1v87.2h-73.2l-7.5-12.8c0,0-8,12.8-20.4,12.8L555.1,242.3L555.1,242.3z"/>
	<path class="st0" d="M765.7,242.3v-154h194.7c0,0,30.5,2.7,30.5,28.8v36.7c0,26.1-30.5,28.8-30.5,28.8h-15.5l48.7,59.7H894
		L847.8,189v53.3L765.7,242.3L765.7,242.3z M885,162.4c0,0,15.9-2,15.9-21.2c0-19.2-15.9-21.2-15.9-21.2h-37.2v42.5H885z"/>
	<path class="st0" d="M1224.6,214.4c0,13.9-13.9,27.2-27.2,27.2l-6.9,0.7h-139.6c-13.3,0-27.2-13.4-27.2-27.2v-99.6
		c0-13.8,13.9-27.2,27.2-27.2h146.3c13.3,0,27.4,13.4,27.4,27.2L1224.6,214.4L1224.6,214.4z M1147.3,141.2c0,0-0.4-19.3-22.1-19.3
		c-21.7,0-22.1,20.8-22.1,20.8v51.5c0,0,0.2,17.7,22.3,17.7s21.9-19.5,21.9-19.5L1147.3,141.2z"/>
	<path class="st0" d="M179.1,0h188.7v47.1H242.4c-4.4,0-9.1,4.2-9.1,9.1v32.1h136.5v102.5c0,0,0.9,21.5,20.4,21.5
		c19.5,0,20.4-21.5,20.4-21.5V88.3h79.7L490,214.9c0,13.8-14,27.4-27.2,27.4H315.4c-13.3,0-27.2-13.4-27.2-27.2v-91.6h-54.4v355.8
		l-40.9,69.3l-40.7-69.3V123.5H0V88.3h151.9V27.2c0-13.9,12.6-27.2,25.9-27.2"/>
</g>
</svg>
