<?xml version="1.0" encoding="UTF-8"?>
<svg width="163px" height="49px" viewBox="0 0 163 49" version="1.1" xmlns="http://www.w3.org/2000/svg" xmlns:xlink="http://www.w3.org/1999/xlink">
    <title>Spotify logo</title>
    <defs>
        <polygon id="path-1" points="48.6999737 0 7.3049851e-05 0 7.3049851e-05 48.8135381 48.6999737 48.8135381 48.6999737 0"></polygon>
    </defs>
    <g id="V1" stroke="none" stroke-width="1" fill="none" fill-rule="evenodd">
        <g id="DESKTOP" transform="translate(-647.000000, -3808.000000)">
            <g id="Section-5:-Logo-Wall" transform="translate(262.000000, 3746.000000)">
                <g id="Partner-Logos" transform="translate(0.000000, 62.000000)">
                    <g id="Spotify-logo" transform="translate(385.000000, 0.000000)">
                        <g id="Group-3">
                            <mask id="mask-2" fill="white">
                                <use xlink:href="#path-1"></use>
                            </mask>
                            <g id="Clip-2"></g>
                            <path d="M38.7537495,21.6370617 C30.9047865,16.9648693 17.9579179,16.5353097 10.4649512,18.8149042 C9.26157666,19.180762 7.98929175,18.4998125 7.624773,17.2938728 C7.26001074,16.087201 7.93864386,14.8126782 9.1427489,14.4460882 C17.7441254,11.8289477 32.0424162,12.3344124 41.0784393,17.7107409 C42.1607945,18.3548362 42.5158168,19.7557861 41.8741956,20.8387155 C41.2320874,21.9235975 39.8334263,22.281157 38.7537495,21.6370617 M38.496614,28.557364 C37.9460616,29.4528492 36.777751,29.7337714 35.8853253,29.1838864 C29.3417632,25.1521281 19.363397,23.9842631 11.6215738,26.3397627 C10.6176254,26.6436273 9.55718505,26.0761693 9.25232368,25.0718298 C8.94989729,24.0655377 9.51603364,23.0048184 10.5182776,22.6987573 C19.3621796,20.0088845 30.3561821,21.3117192 37.8720378,25.9411998 C38.7644635,26.4920611 39.0454619,27.6635872 38.496614,28.557364 M35.5171541,35.2030898 C35.0795855,35.922358 34.1452779,36.1476327 33.4303634,35.7092867 C27.7122645,32.2064237 20.5151497,31.4153995 12.039419,33.3559836 C11.2224782,33.5436719 10.4084593,33.0306411 10.2221822,32.2122813 C10.0351746,31.3934334 10.544819,30.5775143 11.3637079,30.3908023 C20.6388474,28.2654587 28.5954372,29.1799813 35.0135971,33.1111835 C35.7292422,33.5492854 35.9544792,34.4862622 35.5171541,35.2030898 M24.3500234,-4.88135864e-05 C10.9020328,-4.88135864e-05 7.3049851e-05,10.9271167 7.3049851e-05,24.4065006 C7.3049851e-05,37.8868608 10.9020328,48.8135381 24.3500234,48.8135381 C37.7982574,48.8135381 48.6999737,37.8868608 48.6999737,24.4065006 C48.6999737,10.9271167 37.7982574,-4.88135864e-05 24.3500234,-4.88135864e-05" id="Fill-1" fill="#C1C7D0" mask="url(#mask-2)"></path>
                        </g>
                        <path d="M66.2477898,22.5317172 C62.0435273,21.5266454 61.2950099,20.8212891 61.2950099,19.3395526 C61.2950099,17.9393349 62.6101507,16.9972327 64.5659387,16.9972327 C66.4618258,16.9972327 68.3413985,17.7128399 70.312527,19.1860339 C70.3719408,19.2304543 70.4469387,19.2482712 70.520232,19.2368 C70.5937689,19.2255729 70.6590268,19.1853017 70.7018827,19.1240407 L72.7550705,16.2235373 C72.8393213,16.1041881 72.8164324,15.9394422 72.7024746,15.8481608 C70.3568439,13.9615157 67.7153613,13.0443084 64.6282746,13.0443084 C60.0887133,13.0443084 56.9181063,15.7749405 56.9181063,19.6817359 C56.9181063,23.8714061 59.6530927,25.354851 64.3799051,26.5000177 C68.4030039,27.4286962 69.082124,28.2067848 69.082124,29.5982161 C69.082124,31.1397492 67.7090303,32.0979599 65.4995158,32.0979599 C63.0455278,32.0979599 61.0437184,31.2691052 58.8044969,29.3255922 C58.7489791,29.2777549 58.6727637,29.2555447 58.6023924,29.2596939 C58.5283685,29.2660396 58.4606756,29.3002091 58.4134367,29.357077 L56.1118794,32.1025972 C56.0152101,32.216821 56.0273851,32.3869363 56.1391514,32.4855397 C58.7443526,34.8168767 61.9485625,36.0481994 65.4062555,36.0481994 C70.2981605,36.0481994 73.4590275,33.3690657 73.4590275,29.2228396 C73.4590275,25.7185122 71.3700453,23.7803687 66.2477898,22.5317172" id="Fill-4" fill="#C1C7D0"></path>
                        <path d="M88.0767897,27.2283408 C88.0767897,30.1874205 86.2583354,32.2522352 83.6545952,32.2522352 C81.0803185,32.2522352 79.13841,30.0934543 79.13841,27.2283408 C79.13841,24.3634714 81.0803185,22.2044465 83.6545952,22.2044465 C86.21621,22.2044465 88.0767897,24.3168544 88.0767897,27.2283408 M84.5258365,18.3757528 C82.4056863,18.3757528 80.6666128,19.2126617 79.2324008,20.9277271 L79.2324008,18.9971497 C79.2324008,18.8448513 79.1089465,18.7208648 78.9572463,18.7208648 L75.192744,18.7208648 C75.0405568,18.7208648 74.9175896,18.8448513 74.9175896,18.9971497 L74.9175896,40.4485246 C74.9175896,40.600823 75.0405568,40.7248095 75.192744,40.7248095 L78.9572463,40.7248095 C79.1089465,40.7248095 79.2324008,40.600823 79.2324008,40.4485246 L79.2324008,33.6773479 C80.6668563,35.290881 82.4061733,36.0789764 84.5258365,36.0789764 C88.4656584,36.0789764 92.4536933,33.0391102 92.4536933,27.2283408 C92.4536933,21.416107 88.4656584,18.3757528 84.5258365,18.3757528" id="Fill-6" fill="#C1C7D0"></path>
                        <path d="M102.676655,32.2832318 C99.9779497,32.2832318 97.9435114,30.1098069 97.9435114,27.2283408 C97.9435114,24.3346714 99.9073348,22.2347109 102.614319,22.2347109 C105.330312,22.2347109 107.378874,24.4078918 107.378874,27.2915544 C107.378874,30.1844917 105.401171,32.2832318 102.676655,32.2832318 M102.676655,18.3757528 C97.6028555,18.3757528 93.6282132,22.2915787 93.6282132,27.2915544 C93.6282132,32.237103 97.5755836,36.1119255 102.614319,36.1119255 C107.706137,36.1119255 111.692954,32.2090352 111.692954,27.2283408 C111.692954,22.263999 107.733409,18.3757528 102.676655,18.3757528" id="Fill-8" fill="#C1C7D0"></path>
                        <path d="M122.527562,18.7207672 L118.385149,18.7207672 L118.385149,14.4754496 C118.385149,14.3231512 118.262181,14.1991646 118.110238,14.1991646 L114.346222,14.1991646 C114.193792,14.1991646 114.070094,14.3231512 114.070094,14.4754496 L114.070094,18.7207672 L112.259919,18.7207672 C112.108218,18.7207672 111.985738,18.8449978 111.985738,18.9972962 L111.985738,22.2399828 C111.985738,22.3922812 112.108218,22.5165117 112.259919,22.5165117 L114.070094,22.5165117 L114.070094,30.9078114 C114.070094,34.2986472 115.753893,36.0181058 119.074739,36.0181058 C120.425187,36.0181058 121.545285,35.738648 122.601342,35.138485 C122.687054,35.0904036 122.740624,34.9976578 122.740624,34.8992984 L122.740624,31.8111068 C122.740624,31.7159203 122.69095,31.6258593 122.609621,31.5758253 C122.527562,31.524327 122.425536,31.5216423 122.341528,31.5633779 C121.616387,31.9292357 120.915108,32.0978866 120.13177,32.0978866 C118.924013,32.0978866 118.385149,31.5482457 118.385149,30.3164348 L118.385149,22.5165117 L122.527562,22.5165117 C122.679749,22.5165117 122.80223,22.3922812 122.80223,22.2399828 L122.80223,18.9972962 C122.80223,18.8449978 122.679749,18.7207672 122.527562,18.7207672" id="Fill-10" fill="#C1C7D0"></path>
                        <path d="M136.960484,18.7372174 L136.960484,18.2158883 C136.960484,16.6819213 137.547074,15.9977989 138.863189,15.9977989 C139.647988,15.9977989 140.278408,16.1542464 140.984557,16.3902601 C141.071486,16.4175957 141.162311,16.4039279 141.232926,16.3519415 C141.305489,16.2997109 141.34664,16.2159956 141.34664,16.127399 L141.34664,12.9476819 C141.34664,12.8261361 141.268477,12.7185021 141.151841,12.6828682 C140.406002,12.4605223 139.451971,12.2320747 138.022872,12.2320747 C134.545699,12.2320747 132.708008,14.1948691 132.708008,17.9056779 L132.708008,18.7042682 L130.899538,18.7042682 C130.747837,18.7042682 130.623409,18.8284988 130.623409,18.9807972 L130.623409,22.2400804 C130.623409,22.3923788 130.747837,22.5166094 130.899538,22.5166094 L132.708008,22.5166094 L132.708008,35.4595319 C132.708008,35.6120744 132.830732,35.7360609 132.982432,35.7360609 L136.746935,35.7360609 C136.899122,35.7360609 137.02282,35.6120744 137.02282,35.4595319 L137.02282,22.5166094 L140.537492,22.5166094 L145.921753,35.456115 C145.310569,36.8158175 144.709612,37.0862447 143.889019,37.0862447 C143.225726,37.0862447 142.527369,36.8878175 141.813185,36.4960885 C141.74598,36.4592342 141.666599,36.4528884 141.594036,36.4755868 C141.52196,36.5009698 141.461572,36.5544207 141.431135,36.6244682 L140.155197,39.4302732 C140.094322,39.5628021 140.146188,39.7185174 140.273538,39.7873446 C141.605724,40.5102738 142.808124,40.8190197 144.294202,40.8190197 C147.073749,40.8190197 148.610231,39.5210664 149.964818,36.0296746 L156.495718,19.1138142 C156.528591,19.0288786 156.518607,18.9327158 156.466742,18.8572988 C156.41512,18.78237 156.331356,18.7372174 156.240287,18.7372174 L152.321163,18.7372174 C152.20404,18.7372174 152.098848,18.8119022 152.060619,18.9224649 L148.045799,30.4166003 L143.648441,18.9148988 C143.608264,18.8079971 143.505507,18.7372174 143.391549,18.7372174 L136.960484,18.7372174 Z" id="Fill-12" fill="#C1C7D0"></path>
                        <path d="M128.593281,18.7207672 L124.828779,18.7207672 C124.676835,18.7207672 124.552894,18.8449978 124.552894,18.9972962 L124.552894,35.4596784 C124.552894,35.6119768 124.676835,35.7359633 124.828779,35.7359633 L128.593281,35.7359633 C128.745225,35.7359633 128.869166,35.6119768 128.869166,35.4596784 L128.869166,18.9972962 C128.869166,18.8449978 128.745225,18.7207672 128.593281,18.7207672" id="Fill-14" fill="#C1C7D0"></path>
                        <path d="M126.730193,11.2249772 C125.239002,11.2249772 124.028566,12.435066 124.028566,13.9299821 C124.028566,15.4256304 125.239002,16.6371837 126.730193,16.6371837 C128.221141,16.6371837 129.429872,15.4256304 129.429872,13.9299821 C129.429872,12.435066 128.221141,11.2249772 126.730193,11.2249772" id="Fill-16" fill="#C1C7D0"></path>
                        <path d="M159.86395,20.358219 L159.174116,20.358219 L159.174116,21.2397924 L159.86395,21.2397924 C160.208258,21.2397924 160.413772,21.0708974 160.413772,20.7987616 C160.413772,20.5119818 160.208258,20.358219 159.86395,20.358219 M160.311015,21.6159011 L161.060506,22.6675898 L160.428382,22.6675898 L159.753888,21.7030333 L159.174116,21.7030333 L159.174116,22.6675898 L158.645235,22.6675898 L158.645235,19.880334 L159.885134,19.880334 C160.531138,19.880334 160.956288,20.2115342 160.956288,20.7692294 C160.956288,21.2261246 160.692822,21.5053383 160.311015,21.6159011 M159.723694,18.9526317 C158.366671,18.9526317 157.339834,20.0336086 157.339834,21.3579212 C157.339834,22.6812576 158.359366,23.7480785 159.709815,23.7480785 C161.06635,23.7480785 162.094405,22.6675898 162.094405,21.342789 C162.094405,20.0194527 161.074142,18.9526317 159.723694,18.9526317 M159.709815,24.0136244 C158.220085,24.0136244 157.06054,22.8142746 157.06054,21.3579212 C157.06054,19.9013238 158.235182,18.6885502 159.723694,18.6885502 C161.213424,18.6885502 162.372725,19.887656 162.372725,21.342789 C162.372725,22.7991424 161.199301,24.0136244 159.709815,24.0136244" id="Fill-18" fill="#C1C7D0"></path>
                    </g>
                </g>
            </g>
        </g>
    </g>
</svg>