<?xml version="1.0" encoding="UTF-8"?>
<svg width="162px" height="40px" viewBox="0 0 162 40" version="1.1" xmlns="http://www.w3.org/2000/svg" xmlns:xlink="http://www.w3.org/1999/xlink">
    <title>Square Logo </title>
    <defs>
        <polygon id="path-1" points="5.88712199e-05 39.0508696 39.2493048 39.0508696 39.2493048 3.90508698e-05 5.88712199e-05 3.90508698e-05"></polygon>
        <polygon id="path-3" points="18.7559781 18.6082275 18.7559781 0.0188420446 0.168450183 0.0188420446 0.168450183 18.6082275"></polygon>
    </defs>
    <g id="V1" stroke="none" stroke-width="1" fill="none" fill-rule="evenodd">
        <g id="DESKTOP" transform="translate(-262.000000, -3813.000000)">
            <g id="Section-5:-Logo-Wall" transform="translate(262.000000, 3746.000000)">
                <g id="Partner-Logos" transform="translate(0.000000, 62.000000)">
                    <g id="Square-Logo-" transform="translate(0.000000, 5.000000)">
                        <g id="Group-3">
                            <mask id="mask-2" fill="white">
                                <use xlink:href="#path-1"></use>
                            </mask>
                            <g id="Clip-2"></g>
                            <path d="M32.7075349,3.90508698e-05 L6.54241751,3.90508698e-05 C2.94479728,3.90508698e-05 5.88712199e-05,2.92924478 5.88712199e-05,6.50962375 L5.88712199e-05,32.5434717 C5.88712199e-05,36.1220934 2.94479728,39.0509086 6.54241751,39.0509086 L32.7075349,39.0509086 C36.3045664,39.0509086 39.2493048,36.1220934 39.2493048,32.5434717 L39.2493048,6.50962375 C39.2493048,2.92924478 36.3045664,3.90508698e-05 32.7075349,3.90508698e-05 L32.7075349,3.90508698e-05 Z M32.1127393,29.882936 C32.1127393,31.0202925 31.1764907,31.9491175 30.0324266,31.9491175 L9.21595584,31.9491175 C8.07208804,31.9491175 7.13583941,31.0202925 7.13583941,29.882936 L7.13583941,9.17133102 C7.13583941,8.03338868 8.07208804,7.10183019 9.21595584,7.10183019 L30.0324266,7.10183019 C31.1764907,7.10183019 32.1127393,8.03338868 32.1127393,9.17133102 L32.1127393,29.882936 Z M24.9785287,23.6668186 C24.9785287,24.3199443 24.4429968,24.8508409 23.7905075,24.8508409 L15.465332,24.8508409 C14.8106841,24.8508409 14.2769184,24.3199443 14.2769184,23.6668186 L14.2769184,15.3843244 C14.2769184,14.7333464 14.8106841,14.201864 15.465332,14.201864 L23.7905075,14.201864 C24.4429968,14.201864 24.9785287,14.7333464 24.9785287,15.3843244 L24.9785287,23.6668186 Z" id="Fill-1" fill="#C1C7D0" mask="url(#mask-2)"></path>
                        </g>
                        <path d="M57.4149616,32.3481978 C55.0879785,32.3481978 52.8508721,31.456276 51.2746933,29.8899456 C49.8682599,28.493877 49.0890012,26.6795736 49.0890012,24.7815061 L51.4460086,24.7815061 C51.4460086,26.0524166 51.9746721,27.2782234 52.9395714,28.233603 C54.075001,29.3584633 55.7082849,30.0063172 57.4165315,30.0063172 L57.4363514,30.0063172 C60.725094,30.0063172 63.3972587,27.717741 63.3972587,24.9047116 C63.3954925,22.7947931 62.2223854,21.1197061 56.5156056,19.8050585 C54.1927435,19.2702569 52.627554,18.5548449 51.5837672,17.5545569 C50.474241,16.4841726 49.9314483,15.0595969 49.9314483,13.1999945 C49.9314483,9.52823644 53.2398147,6.53908763 57.3074235,6.53908763 C59.2568458,6.53908763 61.0938241,7.20588123 62.4831849,8.41880124 C63.9155216,9.67038161 64.7071433,11.3593317 64.7071433,13.1730494 L62.3503321,13.1730494 C62.3503321,10.8061762 60.0896773,8.88233506 57.3074235,8.88233506 C54.5846296,8.88233506 52.2859047,10.8602616 52.2859047,13.1999945 C52.2859047,15.3390058 53.0241498,16.5960533 57.0483901,17.5227305 C61.3459891,18.5107175 65.7438655,20.1629598 65.755051,24.9029543 C65.755051,26.9207127 64.8757112,28.8064792 63.2797125,30.2130915 C61.7158966,31.591392 59.6408824,32.3481978 57.4379213,32.3481978 L57.4149616,32.3481978 Z" id="Fill-4" fill="#C1C7D0"></path>
                        <path d="M85.1667368,39.0162119 L85.1667368,28.7509098 L85.1004085,28.7509098 C83.5721117,31.08088 80.9376246,32.2791559 78.1681262,32.2791559 C72.8324313,32.2791559 68.5988057,28.2924526 68.5988057,22.9514652 C68.5988057,17.6399612 72.9321199,13.6889894 78.1681262,13.6889894 C80.9376246,13.6889894 83.5721117,14.8876559 85.1004085,17.2517955 L85.1667368,17.2517955 L85.1667368,14.141589 L87.4462304,14.141589 L87.4462304,39.0162119 L85.1667368,39.0162119 Z M78.1681262,15.7295926 C73.9362667,15.7295926 70.8808504,18.8696731 70.8808504,23.0485066 C70.8808504,27.1949279 74.0025949,30.2389432 78.1681262,30.2389432 C82.2068881,30.2389432 85.2978233,26.9656993 85.2978233,23.0139466 C85.2978233,19.0637559 82.2068881,15.7295926 78.1681262,15.7295926 L78.1681262,15.7295926 Z" id="Fill-6" fill="#C1C7D0"></path>
                        <path d="M127.140464,31.8569965 L127.140464,28.749133 L127.074136,28.749133 C125.51032,31.0777364 122.908408,32.2760123 120.140676,32.2760123 C114.806159,32.2760123 110.572533,28.2939951 110.572533,22.9514457 C110.572533,17.6399416 114.900156,13.6866269 120.140676,13.6866269 C122.941769,13.6866269 125.54525,14.8554194 127.074136,17.2506045 L127.140464,17.2506045 L127.140464,14.142741 L129.416033,14.142741 L129.416033,31.8569965 L127.140464,31.8569965 Z M120.140676,15.7295731 C115.912545,15.7295731 112.853008,18.8696535 112.853008,23.0484871 C112.853008,27.1931511 115.977107,30.2389237 120.140676,30.2389237 C124.17728,30.2389237 127.267626,26.9656798 127.267626,23.0139271 C127.267626,19.0637364 124.17728,15.7295731 120.140676,15.7295731 L120.140676,15.7295731 Z" id="Fill-8" fill="#C1C7D0"></path>
                        <path d="M136.244898,21.4936572 L136.244898,31.8587342 L133.963639,31.8587342 L133.963639,14.140769 L136.244898,14.140769 L136.244898,16.6993819 L136.305732,16.6993819 C137.28476,14.432479 139.008902,13.8492542 141.319794,13.6875836 L141.319794,16.0866738 C138.195694,16.3446048 136.244898,18.3194073 136.244898,21.4936572" id="Fill-10" fill="#C1C7D0"></path>
                        <g id="Group-14" transform="translate(142.075877, 13.667804)">
                            <mask id="mask-4" fill="white">
                                <use xlink:href="#path-3"></use>
                            </mask>
                            <g id="Clip-13"></g>
                            <path d="M18.7172016,10.1585956 L2.5087774,10.1585956 C2.67243939,13.655601 5.9293915,16.5711389 9.4124091,16.5711389 C12.1456036,16.5711389 14.8154134,15.015157 15.7922832,12.3919148 L18.1973687,12.3919148 C16.8990621,16.083003 13.3844503,18.6082275 9.44400332,18.6082275 C4.30258347,18.6082275 0.168450183,14.4321275 0.168450183,9.34614224 C0.168450183,4.29627904 4.30258347,0.0188420446 9.4124091,0.0188420446 C14.6219233,0.0188420446 18.7560566,4.39292994 18.7560566,9.51113216 C18.7560566,9.73469839 18.7172016,9.92956223 18.7172016,10.1585956 M9.44400332,2.06042151 C5.89387253,2.06042151 3.06354053,4.65105619 2.5087774,8.11701612 L16.4084686,8.11701612 C15.8221113,4.65105619 13.0249434,2.06042151 9.44400332,2.06042151" id="Fill-12" fill="#C1C7D0" mask="url(#mask-4)"></path>
                        </g>
                        <path d="M105.126141,31.8798803 L105.126141,29.1117594 L105.061382,29.1117594 C104.01426,31.2948983 101.692575,32.3035822 99.3371375,32.3035822 C97.0144716,32.3035822 94.660604,31.4905431 93.1874499,29.6366031 C91.9140654,28.0409846 91.6197093,25.8929915 91.6197093,23.9097931 L91.6197093,14.081275 L93.9082298,14.081275 L93.9082298,23.8750378 C93.9082298,27.5526534 95.2481388,30.2549736 99.3371375,30.2549736 C100.839531,30.2549736 102.01774,29.8621219 103.130995,28.8204399 C104.701875,27.3271347 104.993288,25.5661357 104.993288,23.4860911 L104.993288,14.081275 L107.284752,14.081275 L107.284752,31.8798803 L105.126141,31.8798803 Z" id="Fill-15" fill="#C1C7D0"></path>
                    </g>
                </g>
            </g>
        </g>
    </g>
</svg>